<svg width="22" height="22" viewBox="0 0 22 22" fill="none" xmlns="http://www.w3.org/2000/svg">
<path d="M11 21C16.523 21 21 16.523 21 11C21 5.477 16.523 1 11 1C5.477 1 1 5.477 1 11C1 16.523 5.477 21 11 21Z" stroke="white" stroke-width="1.5" stroke-linejoin="round"/>
<path d="M11 8C11.3978 8 11.7794 7.84196 12.0607 7.56066C12.342 7.27936 12.5 6.89782 12.5 6.5C12.5 6.10218 12.342 5.72064 12.0607 5.43934C11.7794 5.15804 11.3978 5 11 5C10.6022 5 10.2206 5.15804 9.93934 5.43934C9.65804 5.72064 9.5 6.10218 9.5 6.5C9.5 6.89782 9.65804 7.27936 9.93934 7.56066C10.2206 7.84196 10.6022 8 11 8ZM11 17C11.3978 17 11.7794 16.842 12.0607 16.5607C12.342 16.2794 12.5 15.8978 12.5 15.5C12.5 15.1022 12.342 14.7206 12.0607 14.4393C11.7794 14.158 11.3978 14 11 14C10.6022 14 10.2206 14.158 9.93934 14.4393C9.65804 14.7206 9.5 15.1022 9.5 15.5C9.5 15.8978 9.65804 16.2794 9.93934 16.5607C10.2206 16.842 10.6022 17 11 17ZM6.5 12.5C6.89782 12.5 7.27936 12.342 7.56066 12.0607C7.84196 11.7794 8 11.3978 8 11C8 10.6022 7.84196 10.2206 7.56066 9.93934C7.27936 9.65804 6.89782 9.5 6.5 9.5C6.10218 9.5 5.72064 9.65804 5.43934 9.93934C5.15804 10.2206 5 10.6022 5 11C5 11.3978 5.15804 11.7794 5.43934 12.0607C5.72064 12.342 6.10218 12.5 6.5 12.5V12.5ZM15.5 12.5C15.8978 12.5 16.2794 12.342 16.5607 12.0607C16.842 11.7794 17 11.3978 17 11C17 10.6022 16.842 10.2206 16.5607 9.93934C16.2794 9.65804 15.8978 9.5 15.5 9.5C15.1022 9.5 14.7206 9.65804 14.4393 9.93934C14.158 10.2206 14 10.6022 14 11C14 11.3978 14.158 11.7794 14.4393 12.0607C14.7206 12.342 15.1022 12.5 15.5 12.5Z" stroke="white" stroke-width="1.5" stroke-linejoin="round"/>
<path d="M11 21H21" stroke="white" stroke-width="1.5" stroke-linecap="round"/>
</svg>
